<svg xmlns="http://www.w3.org/2000/svg" xmlns:xlink="http://www.w3.org/1999/xlink" width="1080" zoomAndPan="magnify" viewBox="0 0 810 809.999993" height="1080" preserveAspectRatio="xMidYMid meet" version="1.0"><path fill="#a6a6a6" d="M 423.746094 245.007812 L 141.25 245.007812 C 140.09375 245.007812 138.9375 245.035156 137.78125 245.089844 C 136.628906 245.148438 135.476562 245.234375 134.324219 245.347656 C 133.175781 245.460938 132.027344 245.601562 130.886719 245.769531 C 129.742188 245.941406 128.605469 246.136719 127.46875 246.363281 C 126.335938 246.589844 125.210938 246.84375 124.085938 247.125 C 122.964844 247.402344 121.851562 247.710938 120.746094 248.046875 C 119.640625 248.382812 118.542969 248.746094 117.457031 249.136719 C 116.367188 249.523438 115.289062 249.941406 114.222656 250.382812 C 113.152344 250.824219 112.097656 251.292969 111.050781 251.789062 C 110.007812 252.28125 108.976562 252.800781 107.957031 253.347656 C 106.9375 253.890625 105.929688 254.460938 104.941406 255.054688 C 103.949219 255.648438 102.972656 256.265625 102.011719 256.910156 C 101.050781 257.550781 100.105469 258.214844 99.175781 258.90625 C 98.25 259.59375 97.339844 260.304688 96.445312 261.039062 C 95.550781 261.769531 94.675781 262.527344 93.820312 263.300781 C 92.964844 264.078125 92.125 264.875 91.308594 265.691406 C 90.492188 266.507812 89.695312 267.347656 88.917969 268.203125 C 88.144531 269.058594 87.386719 269.933594 86.65625 270.828125 C 85.921875 271.722656 85.210938 272.632812 84.523438 273.558594 C 83.832031 274.488281 83.167969 275.433594 82.527344 276.394531 C 81.882812 277.355469 81.265625 278.332031 80.671875 279.324219 C 80.078125 280.3125 79.507812 281.320312 78.964844 282.339844 C 78.417969 283.359375 77.898438 284.390625 77.40625 285.433594 C 76.910156 286.480469 76.441406 287.535156 76 288.605469 C 75.558594 289.671875 75.140625 290.75 74.753906 291.839844 C 74.363281 292.925781 74 294.023438 73.664062 295.128906 C 73.328125 296.234375 73.019531 297.347656 72.742188 298.46875 C 72.460938 299.589844 72.207031 300.71875 71.980469 301.851562 C 71.753906 302.984375 71.558594 304.125 71.386719 305.269531 C 71.21875 306.410156 71.078125 307.558594 70.964844 308.707031 C 70.851562 309.859375 70.765625 311.011719 70.710938 312.164062 C 70.652344 313.320312 70.625 314.476562 70.625 315.628906 L 70.625 456.878906 C 70.625 458.035156 70.652344 459.191406 70.710938 460.34375 C 70.765625 461.5 70.851562 462.652344 70.964844 463.800781 C 71.078125 464.953125 71.21875 466.097656 71.386719 467.242188 C 71.558594 468.382812 71.753906 469.523438 71.980469 470.65625 C 72.207031 471.789062 72.460938 472.917969 72.742188 474.039062 C 73.019531 475.160156 73.328125 476.273438 73.664062 477.378906 C 74 478.484375 74.363281 479.582031 74.753906 480.671875 C 75.140625 481.757812 75.558594 482.835938 76 483.90625 C 76.441406 484.972656 76.910156 486.03125 77.40625 487.074219 C 77.898438 488.121094 78.417969 489.152344 78.964844 490.171875 C 79.507812 491.191406 80.078125 492.195312 80.671875 493.1875 C 81.265625 494.179688 81.882812 495.152344 82.527344 496.117188 C 83.167969 497.078125 83.832031 498.019531 84.523438 498.949219 C 85.210938 499.878906 85.921875 500.789062 86.65625 501.683594 C 87.386719 502.574219 88.144531 503.449219 88.917969 504.308594 C 89.695312 505.164062 90.492188 506 91.308594 506.816406 C 92.125 507.632812 92.964844 508.429688 93.820312 509.207031 C 94.675781 509.984375 95.550781 510.738281 96.445312 511.472656 C 97.339844 512.203125 98.25 512.914062 99.175781 513.605469 C 100.105469 514.292969 101.050781 514.957031 102.011719 515.601562 C 102.972656 516.242188 103.949219 516.859375 104.941406 517.453125 C 105.929688 518.050781 106.9375 518.617188 107.957031 519.164062 C 108.976562 519.707031 110.007812 520.226562 111.050781 520.722656 C 112.097656 521.214844 113.152344 521.683594 114.222656 522.125 C 115.289062 522.570312 116.367188 522.984375 117.457031 523.375 C 118.542969 523.765625 119.640625 524.125 120.746094 524.460938 C 121.851562 524.796875 122.964844 525.105469 124.085938 525.386719 C 125.207031 525.667969 126.335938 525.921875 127.46875 526.144531 C 128.605469 526.371094 129.742188 526.570312 130.886719 526.738281 C 132.027344 526.90625 133.175781 527.050781 134.324219 527.164062 C 135.476562 527.277344 136.628906 527.359375 137.78125 527.417969 C 138.9375 527.472656 140.09375 527.503906 141.25 527.503906 L 176.558594 527.503906 L 176.558594 668.75 C 176.558594 669.90625 176.617188 671.0625 176.730469 672.210938 C 176.84375 673.363281 177.011719 674.503906 177.238281 675.640625 C 177.464844 676.773438 177.746094 677.894531 178.082031 679 C 178.417969 680.109375 178.804688 681.195312 179.246094 682.265625 C 179.691406 683.332031 180.183594 684.375 180.730469 685.398438 C 181.273438 686.417969 181.867188 687.40625 182.511719 688.367188 C 183.152344 689.332031 183.84375 690.257812 184.574219 691.152344 C 185.308594 692.046875 186.085938 692.902344 186.902344 693.71875 C 187.71875 694.539062 188.578125 695.3125 189.46875 696.046875 C 190.363281 696.78125 191.292969 697.46875 192.253906 698.113281 C 193.214844 698.753906 194.207031 699.347656 195.226562 699.894531 C 196.246094 700.4375 197.289062 700.933594 198.359375 701.375 C 199.425781 701.816406 200.515625 702.207031 201.621094 702.542969 C 202.726562 702.878906 203.847656 703.160156 204.984375 703.382812 C 206.117188 703.609375 207.261719 703.78125 208.410156 703.894531 C 209.5625 704.007812 210.714844 704.0625 211.871094 704.0625 L 282.496094 704.0625 C 283.652344 704.0625 284.804688 704.007812 285.957031 703.894531 C 287.109375 703.78125 288.25 703.609375 289.386719 703.382812 C 290.519531 703.160156 291.640625 702.878906 292.746094 702.542969 C 293.851562 702.207031 294.941406 701.816406 296.007812 701.375 C 297.078125 700.933594 298.121094 700.4375 299.140625 699.894531 C 300.160156 699.347656 301.152344 698.753906 302.113281 698.113281 C 303.074219 697.46875 304.003906 696.78125 304.898438 696.046875 C 305.792969 695.3125 306.648438 694.539062 307.464844 693.71875 C 308.285156 692.902344 309.058594 692.046875 309.792969 691.152344 C 310.527344 690.257812 311.214844 689.332031 311.855469 688.367188 C 312.5 687.40625 313.09375 686.417969 313.636719 685.398438 C 314.183594 684.375 314.675781 683.332031 315.121094 682.265625 C 315.5625 681.195312 315.953125 680.109375 316.289062 679 C 316.625 677.894531 316.902344 676.773438 317.128906 675.640625 C 317.355469 674.503906 317.523438 673.363281 317.636719 672.210938 C 317.75 671.0625 317.808594 669.90625 317.808594 668.75 L 317.808594 527.503906 L 423.746094 527.503906 L 600.304688 668.75 L 600.304688 103.757812 L 423.746094 245.007812 M 759.207031 386.253906 C 759.207031 446.636719 725.308594 501.371094 670.929688 527.503906 L 670.929688 245.007812 C 724.957031 271.492188 759.207031 326.222656 759.207031 386.253906 Z M 759.207031 386.253906 " fill-opacity="1" fill-rule="nonzero"/></svg>