<svg class="svg-icon" style="width: 1em; height: 1em;vertical-align: middle;fill: currentColor;overflow: hidden;" viewBox="0 0 1024 1024" version="1.1" xmlns="http://www.w3.org/2000/svg"><path d="M806.4 405.504v-102.4a294.4 294.4 0 1 0-588.8 0v102.4A132.608 132.608 0 0 0 112.128 491.52a38.4 38.4 0 0 0 71.68 27.648 54.784 54.784 0 0 1 51.2-38.4h555.52a60.416 60.416 0 0 1 54.272 64v330.752a60.416 60.416 0 0 1-54.272 64H233.472A60.416 60.416 0 0 1 179.2 875.52v-126.976h403.456a37.888 37.888 0 0 0 27.136-11.776 35.84 35.84 0 0 0 4.608-4.608 37.888 37.888 0 0 0 5.12-7.68 37.376 37.376 0 0 0 0-9.728 35.328 35.328 0 0 0 0-4.608 38.4 38.4 0 0 0 0-11.776v-6.656a38.912 38.912 0 0 0-6.144-9.216l-122.368-113.664a38.4 38.4 0 1 0-51.2 55.296l51.2 47.104H140.8a38.4 38.4 0 0 0-38.4 38.4v165.888a136.192 136.192 0 0 0 131.072 140.8h557.056A136.192 136.192 0 0 0 921.6 875.52v-330.752a137.216 137.216 0 0 0-115.2-139.264zM512 84.48a217.6 217.6 0 0 1 217.6 217.6v102.4h-435.2v-102.4A217.6 217.6 0 0 1 512 84.48z" fill="#438CFF" /></svg>